<svg width="356" height="122" viewBox="0 0 356 122" fill="none" xmlns="http://www.w3.org/2000/svg">
<path d="M66.4198 82.7662C78.4493 82.7662 88.2062 73.0446 88.2062 61.0586H66.4198V82.7662Z" fill="white"/>
<path d="M110.032 39.2338C122.061 39.2338 131.818 48.9554 131.818 60.9414H110.032V39.2338Z" fill="#8F3FB5"/>
<path d="M66.4198 60.9414C66.4198 48.9554 76.1766 39.2338 88.2062 39.2338V60.9414H66.4198Z" fill="#C753FE"/>
<path d="M110.032 82.7662C122.061 82.7662 131.818 73.0446 131.818 61.0586H110.032V82.7662Z" fill="#C753FE"/>
<path d="M66.9683 39.2338C54.9388 39.2338 45.182 48.9554 45.182 60.9414H66.9683V39.2338Z" fill="#8F3FB5"/>
<path d="M66.9683 82.7662C54.9388 82.7662 45.182 73.0446 45.182 61.0586H66.9683V82.7662Z" fill="white"/>
<path d="M110.032 82.7662C98.0022 82.7662 88.2453 73.0446 88.2453 61.0586H110.032V82.7662Z" fill="#C753FE"/>
<path d="M110.032 60.9414C110.032 48.9554 100.275 39.2338 88.2453 39.2338V60.9414H110.032Z" fill="#C753FE"/>
<path opacity="0.5" d="M92.1245 61.3709C92.1245 71.2096 100.157 79.2133 110.032 79.2133C119.906 79.2133 127.939 71.2096 127.939 61.3709H119.318H92.1245Z" fill="url(#paint0_linear_1_41)"/>
<path opacity="0.5" d="M106.388 60.8634C106.388 51.0246 98.3548 43.0209 88.4805 43.0209C78.6061 43.0209 70.5734 51.0246 70.5734 60.8634H79.1939H106.388Z" fill="url(#paint1_linear_1_41)"/>
<path opacity="0.5" d="M49.0613 61.3709C49.0613 71.2096 57.094 79.2133 66.9684 79.2133C76.8428 79.2133 84.8755 71.2096 84.8755 61.3709H76.255H49.0613Z" fill="url(#paint2_linear_1_41)"/>
<path d="M149.357 74L144.63 52.83H148.806L151.909 68.983H151.967L155.07 54.57H160.029L163.132 68.983H163.19L166.293 52.83H170.469L165.713 74H160.783L157.564 59.587H157.506L154.316 74H149.357ZM178.372 74.29C175.665 74.29 173.577 73.6133 172.108 72.26C170.658 70.9067 169.933 68.9733 169.933 66.46C169.933 64.024 170.6 62.11 171.934 60.718C173.268 59.326 175.104 58.63 177.444 58.63C179.706 58.63 181.446 59.2873 182.664 60.602C183.901 61.9167 184.52 63.7823 184.52 66.199C184.52 66.4697 184.51 66.779 184.491 67.127C184.491 67.475 184.481 67.736 184.462 67.91H172.166V65.155H181.359L180.808 65.996C180.808 64.488 180.527 63.3667 179.967 62.632C179.425 61.8973 178.584 61.53 177.444 61.53C176.245 61.53 175.346 61.9167 174.747 62.69C174.147 63.444 173.848 64.575 173.848 66.083V67.243C173.848 68.5963 174.205 69.592 174.921 70.23C175.636 70.868 176.728 71.187 178.198 71.187C179.029 71.187 179.909 71.1097 180.837 70.955C181.765 70.8003 182.586 70.5877 183.302 70.317L183.766 73.362C183.05 73.652 182.209 73.8743 181.243 74.029C180.295 74.203 179.338 74.29 178.372 74.29ZM186.644 74V58.92H190.472L190.501 61.733H190.588C191.091 61.0563 191.681 60.4957 192.357 60.051C193.053 59.587 193.807 59.239 194.619 59.007C195.451 58.7557 196.301 58.63 197.171 58.63V62.023C195.973 62.023 194.88 62.2453 193.894 62.69C192.908 63.1347 192.125 63.7437 191.545 64.517C190.965 65.271 190.675 66.112 190.675 67.04V74H186.644ZM198.858 74V58.92H202.657L202.686 60.689H202.744C203.363 59.993 204.078 59.4807 204.89 59.152C205.722 58.804 206.679 58.63 207.761 58.63C209.579 58.63 210.913 59.123 211.763 60.109C212.633 61.0757 213.068 62.6127 213.068 64.72V74H209.095V65.503C209.095 64.2463 208.883 63.3377 208.457 62.777C208.032 62.197 207.355 61.907 206.427 61.907C205.731 61.907 205.113 62.052 204.571 62.342C204.03 62.6127 203.605 62.9897 203.295 63.473C203.005 63.937 202.86 64.488 202.86 65.126V74H198.858ZM221.84 74V55.75H234.665V58.8H225.34V63.625H234.165V66.6H225.34V74H221.84ZM236.617 58.925V55.75H240.117V58.925H236.617ZM236.617 74V61.175H240.117V74H236.617ZM243.016 74V61H246.291L246.316 62.525H246.366C246.899 61.925 247.516 61.4833 248.216 61.2C248.933 60.9 249.758 60.75 250.691 60.75C252.258 60.75 253.408 61.175 254.141 62.025C254.891 62.8583 255.266 64.1833 255.266 66V74H251.841V66.675C251.841 65.5917 251.658 64.8083 251.291 64.325C250.924 63.825 250.341 63.575 249.541 63.575C248.941 63.575 248.408 63.7 247.941 63.95C247.474 64.1833 247.108 64.5083 246.841 64.925C246.591 65.325 246.466 65.8 246.466 66.35V74H243.016ZM260.772 74.25C259.489 74.25 258.472 73.8917 257.722 73.175C256.989 72.4583 256.622 71.5 256.622 70.3C256.622 68.8 257.205 67.6417 258.372 66.825C259.555 66.0083 261.23 65.6 263.397 65.6H265.122C265.122 65.0167 265.047 64.5667 264.897 64.25C264.764 63.9333 264.522 63.7167 264.172 63.6C263.839 63.4667 263.355 63.4 262.722 63.4C261.889 63.4 261.022 63.4917 260.122 63.675C259.222 63.8417 258.372 64.0833 257.572 64.4L257.147 61.75C258.014 61.4333 258.972 61.1917 260.022 61.025C261.089 60.8417 262.147 60.75 263.197 60.75C264.53 60.75 265.58 60.9083 266.347 61.225C267.114 61.5417 267.672 62.075 268.022 62.825C268.372 63.5583 268.547 64.55 268.547 65.8V74H265.272L265.222 72.5H265.197C264.73 73.0333 264.089 73.4583 263.272 73.775C262.455 74.0917 261.622 74.25 260.772 74.25ZM262.022 71.65C262.605 71.65 263.13 71.55 263.597 71.35C264.064 71.15 264.43 70.875 264.697 70.525C264.98 70.1583 265.122 69.7583 265.122 69.325V67.85H263.897C262.547 67.85 261.539 68.025 260.872 68.375C260.205 68.7083 259.872 69.2333 259.872 69.95C259.872 70.4833 260.055 70.9 260.422 71.2C260.805 71.5 261.339 71.65 262.022 71.65ZM270.911 74V61H274.186L274.211 62.525H274.261C274.794 61.925 275.411 61.4833 276.111 61.2C276.827 60.9 277.652 60.75 278.586 60.75C280.152 60.75 281.302 61.175 282.036 62.025C282.786 62.8583 283.161 64.1833 283.161 66V74H279.736V66.675C279.736 65.5917 279.552 64.8083 279.186 64.325C278.819 63.825 278.236 63.575 277.436 63.575C276.836 63.575 276.302 63.7 275.836 63.95C275.369 64.1833 275.002 64.5083 274.736 64.925C274.486 65.325 274.361 65.8 274.361 66.35V74H270.911ZM291.917 74.25C290.4 74.25 289.1 73.9833 288.017 73.45C286.933 72.9167 286.108 72.15 285.542 71.15C284.975 70.1333 284.692 68.9167 284.692 67.5C284.692 66.0667 284.975 64.85 285.542 63.85C286.108 62.85 286.933 62.0833 288.017 61.55C289.1 61.0167 290.4 60.75 291.917 60.75C292.683 60.75 293.4 60.825 294.067 60.975C294.733 61.125 295.383 61.3667 296.017 61.7L295.467 64.325C294.883 64.0083 294.317 63.7833 293.767 63.65C293.233 63.5 292.7 63.425 292.167 63.425C290.9 63.425 289.917 63.775 289.217 64.475C288.533 65.175 288.192 66.1833 288.192 67.5C288.192 68.8 288.533 69.8083 289.217 70.525C289.917 71.225 290.9 71.575 292.167 71.575C292.7 71.575 293.233 71.5083 293.767 71.375C294.317 71.225 294.883 70.9917 295.467 70.675L296.017 73.3C295.383 73.6333 294.733 73.875 294.067 74.025C293.4 74.175 292.683 74.25 291.917 74.25ZM304.571 74.25C302.238 74.25 300.438 73.6667 299.171 72.5C297.921 71.3333 297.296 69.6667 297.296 67.5C297.296 65.4 297.871 63.75 299.021 62.55C300.171 61.35 301.754 60.75 303.771 60.75C305.721 60.75 307.221 61.3167 308.271 62.45C309.338 63.5833 309.871 65.1917 309.871 67.275C309.871 67.5083 309.863 67.775 309.846 68.075C309.846 68.375 309.838 68.6 309.821 68.75H299.221V66.375H307.146L306.671 67.1C306.671 65.8 306.429 64.8333 305.946 64.2C305.479 63.5667 304.754 63.25 303.771 63.25C302.738 63.25 301.963 63.5833 301.446 64.25C300.929 64.9 300.671 65.875 300.671 67.175V68.175C300.671 69.3417 300.979 70.2 301.596 70.75C302.213 71.3 303.154 71.575 304.421 71.575C305.138 71.575 305.896 71.5083 306.696 71.375C307.496 71.2417 308.204 71.0583 308.821 70.825L309.221 73.45C308.604 73.7 307.879 73.8917 307.046 74.025C306.229 74.175 305.404 74.25 304.571 74.25Z" fill="white"/>
<defs>
<linearGradient id="paint0_linear_1_41" x1="110.032" y1="78.5741" x2="110.032" y2="61.902" gradientUnits="userSpaceOnUse">
<stop stop-opacity="0.25"/>
<stop offset="1" stop-opacity="0"/>
</linearGradient>
<linearGradient id="paint1_linear_1_41" x1="88.5004" y1="43.634" x2="88.5004" y2="60.3059" gradientUnits="userSpaceOnUse">
<stop stop-opacity="0.25"/>
<stop offset="1" stop-opacity="0"/>
</linearGradient>
<linearGradient id="paint2_linear_1_41" x1="66.9688" y1="78.5741" x2="66.9688" y2="61.902" gradientUnits="userSpaceOnUse">
<stop stop-opacity="0.25"/>
<stop offset="1" stop-opacity="0"/>
</linearGradient>
</defs>
</svg>
